<svg width="51" height="51" viewBox="0 0 51 51" fill="none" xmlns="http://www.w3.org/2000/svg">
<path d="M6.14594 40.9193C5.17759 40.1684 3.68044 37.7461 3.05291 36.6287L19.1908 19.0645L27.1255 27.3773L43.8014 9.14268C45.0925 10.0008 46.4015 12.3606 46.8945 13.4332L27.1255 34.7517L19.1908 26.7069L6.14594 40.9193Z" fill="#6359E9"/>
<path fill-rule="evenodd" clip-rule="evenodd" d="M13.9461 35.8243L17.4426 32.0701C18.653 33.4109 21.7999 35.9584 24.7048 35.422C25.5565 36.7181 27.7711 38.5327 29.8151 35.422L37.0772 27.3773C38.1531 30.0142 38.4219 36.1193 30.8909 39.4444V43.6008C36.4944 42.0813 46.9214 35.3148 43.8014 20.4053L48.1049 15.8466C56.8463 36.6287 31.6979 62.5059 7.75983 42.9304L11.2564 38.774C13.0943 40.517 17.2542 43.9226 19.1908 43.6008V39.4444C17.8199 38.9528 14.9591 37.4332 13.9461 35.8243ZM26.3186 40.517H23.6289V44.5394H26.3186V40.517Z" fill="#6359E9"/>
<path fill-rule="evenodd" clip-rule="evenodd" d="M1.97695 34.3494L6.14594 29.9248C4.71145 24.3382 5.31214 11.8242 19.1908 6.46108V10.6175C16.5012 11.5114 11.4446 15.203 12.7356 22.8187C14.4391 20.8075 17.9805 16.7315 18.5184 16.517H19.5943C21.7909 14.9527 27.4212 13.0309 32.3702 17.8578L35.8668 14.2376C35.4634 13.4779 33.9033 11.6901 30.8909 10.6175V6.46108C32.4599 6.86332 36.1627 8.365 38.422 11.1538L42.1876 7.39963C27.5288 -8.28752 -7.03336 3.64546 1.97695 34.3494ZM26.3186 5.65664H23.6289V9.54491H26.3186V5.65664Z" fill="#6359E9"/>
<path d="M6.14594 40.9193C5.17759 40.1684 3.68044 37.7461 3.05291 36.6287L19.1908 19.0645L27.1255 27.3773L43.8014 9.14268C45.0925 10.0008 46.4015 12.3606 46.8945 13.4332L27.1255 34.7517L19.1908 26.7069L6.14594 40.9193Z" stroke="#6359E9"/>
<path fill-rule="evenodd" clip-rule="evenodd" d="M13.9461 35.8243L17.4426 32.0701C18.653 33.4109 21.7999 35.9584 24.7048 35.422C25.5565 36.7181 27.7711 38.5327 29.8151 35.422L37.0772 27.3773C38.1531 30.0142 38.4219 36.1193 30.8909 39.4444V43.6008C36.4944 42.0813 46.9214 35.3148 43.8014 20.4053L48.1049 15.8466C56.8463 36.6287 31.6979 62.5059 7.75983 42.9304L11.2564 38.774C13.0943 40.517 17.2542 43.9226 19.1908 43.6008V39.4444C17.8199 38.9528 14.9591 37.4332 13.9461 35.8243ZM26.3186 40.517H23.6289V44.5394H26.3186V40.517Z" stroke="#6359E9"/>
<path fill-rule="evenodd" clip-rule="evenodd" d="M1.97695 34.3494L6.14594 29.9248C4.71145 24.3382 5.31214 11.8242 19.1908 6.46108V10.6175C16.5012 11.5114 11.4446 15.203 12.7356 22.8187C14.4391 20.8075 17.9805 16.7315 18.5184 16.517H19.5943C21.7909 14.9527 27.4212 13.0309 32.3702 17.8578L35.8668 14.2376C35.4634 13.4779 33.9033 11.6901 30.8909 10.6175V6.46108C32.4599 6.86332 36.1627 8.365 38.422 11.1538L42.1876 7.39963C27.5288 -8.28752 -7.03336 3.64546 1.97695 34.3494ZM26.3186 5.65664H23.6289V9.54491H26.3186V5.65664Z" stroke="#6359E9"/>
</svg>
